%TF.GenerationSoftware,KiCad,Pcbnew,9.0.4*%
%TF.CreationDate,2026-01-01T23:11:04+01:00*%
%TF.ProjectId,color-sensor-2026,636f6c6f-722d-4736-956e-736f722d3230,rev?*%
%TF.SameCoordinates,Original*%
%TF.FileFunction,Legend,Top*%
%TF.FilePolarity,Positive*%
%FSLAX46Y46*%
G04 Gerber Fmt 4.6, Leading zero omitted, Abs format (unit mm)*
G04 Created by KiCad (PCBNEW 9.0.4) date 2026-01-01 23:11:04*
%MOMM*%
%LPD*%
G01*
G04 APERTURE LIST*
%ADD10C,0.150000*%
%ADD11C,0.120000*%
G04 APERTURE END LIST*
D10*
X72261905Y-94974819D02*
X72261905Y-93974819D01*
X72261905Y-93974819D02*
X72500000Y-93974819D01*
X72500000Y-93974819D02*
X72642857Y-94022438D01*
X72642857Y-94022438D02*
X72738095Y-94117676D01*
X72738095Y-94117676D02*
X72785714Y-94212914D01*
X72785714Y-94212914D02*
X72833333Y-94403390D01*
X72833333Y-94403390D02*
X72833333Y-94546247D01*
X72833333Y-94546247D02*
X72785714Y-94736723D01*
X72785714Y-94736723D02*
X72738095Y-94831961D01*
X72738095Y-94831961D02*
X72642857Y-94927200D01*
X72642857Y-94927200D02*
X72500000Y-94974819D01*
X72500000Y-94974819D02*
X72261905Y-94974819D01*
X73785714Y-94974819D02*
X73214286Y-94974819D01*
X73500000Y-94974819D02*
X73500000Y-93974819D01*
X73500000Y-93974819D02*
X73404762Y-94117676D01*
X73404762Y-94117676D02*
X73309524Y-94212914D01*
X73309524Y-94212914D02*
X73214286Y-94260533D01*
X76771428Y-95757704D02*
X77228571Y-95757704D01*
X76999999Y-95757704D02*
X76999999Y-96557704D01*
X76999999Y-96557704D02*
X77076190Y-96443419D01*
X77076190Y-96443419D02*
X77152380Y-96367228D01*
X77152380Y-96367228D02*
X77228571Y-96329133D01*
X76632668Y-88454819D02*
X76366001Y-87978628D01*
X76175525Y-88454819D02*
X76175525Y-87454819D01*
X76175525Y-87454819D02*
X76480287Y-87454819D01*
X76480287Y-87454819D02*
X76556477Y-87502438D01*
X76556477Y-87502438D02*
X76594572Y-87550057D01*
X76594572Y-87550057D02*
X76632668Y-87645295D01*
X76632668Y-87645295D02*
X76632668Y-87788152D01*
X76632668Y-87788152D02*
X76594572Y-87883390D01*
X76594572Y-87883390D02*
X76556477Y-87931009D01*
X76556477Y-87931009D02*
X76480287Y-87978628D01*
X76480287Y-87978628D02*
X76175525Y-87978628D01*
X77394572Y-88454819D02*
X76937429Y-88454819D01*
X77166001Y-88454819D02*
X77166001Y-87454819D01*
X77166001Y-87454819D02*
X77089810Y-87597676D01*
X77089810Y-87597676D02*
X77013620Y-87692914D01*
X77013620Y-87692914D02*
X76937429Y-87740533D01*
X68694579Y-102311832D02*
X68742199Y-102349928D01*
X68742199Y-102349928D02*
X68789818Y-102464213D01*
X68789818Y-102464213D02*
X68789818Y-102540404D01*
X68789818Y-102540404D02*
X68742199Y-102654690D01*
X68742199Y-102654690D02*
X68646960Y-102730880D01*
X68646960Y-102730880D02*
X68551722Y-102768975D01*
X68551722Y-102768975D02*
X68361246Y-102807071D01*
X68361246Y-102807071D02*
X68218389Y-102807071D01*
X68218389Y-102807071D02*
X68027913Y-102768975D01*
X68027913Y-102768975D02*
X67932675Y-102730880D01*
X67932675Y-102730880D02*
X67837437Y-102654690D01*
X67837437Y-102654690D02*
X67789818Y-102540404D01*
X67789818Y-102540404D02*
X67789818Y-102464213D01*
X67789818Y-102464213D02*
X67837437Y-102349928D01*
X67837437Y-102349928D02*
X67885056Y-102311832D01*
X68789818Y-101549928D02*
X68789818Y-102007071D01*
X68789818Y-101778499D02*
X67789818Y-101778499D01*
X67789818Y-101778499D02*
X67932675Y-101854690D01*
X67932675Y-101854690D02*
X68027913Y-101930880D01*
X68027913Y-101930880D02*
X68075532Y-102007071D01*
X71726819Y-102901904D02*
X72536342Y-102901904D01*
X72536342Y-102901904D02*
X72631580Y-102854285D01*
X72631580Y-102854285D02*
X72679200Y-102806666D01*
X72679200Y-102806666D02*
X72726819Y-102711428D01*
X72726819Y-102711428D02*
X72726819Y-102520952D01*
X72726819Y-102520952D02*
X72679200Y-102425714D01*
X72679200Y-102425714D02*
X72631580Y-102378095D01*
X72631580Y-102378095D02*
X72536342Y-102330476D01*
X72536342Y-102330476D02*
X71726819Y-102330476D01*
X72726819Y-101330476D02*
X72726819Y-101901904D01*
X72726819Y-101616190D02*
X71726819Y-101616190D01*
X71726819Y-101616190D02*
X71869676Y-101711428D01*
X71869676Y-101711428D02*
X71964914Y-101806666D01*
X71964914Y-101806666D02*
X72012533Y-101901904D01*
X68662819Y-94907332D02*
X68186628Y-95173999D01*
X68662819Y-95364475D02*
X67662819Y-95364475D01*
X67662819Y-95364475D02*
X67662819Y-95059713D01*
X67662819Y-95059713D02*
X67710438Y-94983523D01*
X67710438Y-94983523D02*
X67758057Y-94945428D01*
X67758057Y-94945428D02*
X67853295Y-94907332D01*
X67853295Y-94907332D02*
X67996152Y-94907332D01*
X67996152Y-94907332D02*
X68091390Y-94945428D01*
X68091390Y-94945428D02*
X68139009Y-94983523D01*
X68139009Y-94983523D02*
X68186628Y-95059713D01*
X68186628Y-95059713D02*
X68186628Y-95364475D01*
X67662819Y-94640666D02*
X67662819Y-94145428D01*
X67662819Y-94145428D02*
X68043771Y-94412094D01*
X68043771Y-94412094D02*
X68043771Y-94297809D01*
X68043771Y-94297809D02*
X68091390Y-94221618D01*
X68091390Y-94221618D02*
X68139009Y-94183523D01*
X68139009Y-94183523D02*
X68234247Y-94145428D01*
X68234247Y-94145428D02*
X68472342Y-94145428D01*
X68472342Y-94145428D02*
X68567580Y-94183523D01*
X68567580Y-94183523D02*
X68615200Y-94221618D01*
X68615200Y-94221618D02*
X68662819Y-94297809D01*
X68662819Y-94297809D02*
X68662819Y-94526380D01*
X68662819Y-94526380D02*
X68615200Y-94602571D01*
X68615200Y-94602571D02*
X68567580Y-94640666D01*
X78822819Y-102273332D02*
X78346628Y-102539999D01*
X78822819Y-102730475D02*
X77822819Y-102730475D01*
X77822819Y-102730475D02*
X77822819Y-102425713D01*
X77822819Y-102425713D02*
X77870438Y-102349523D01*
X77870438Y-102349523D02*
X77918057Y-102311428D01*
X77918057Y-102311428D02*
X78013295Y-102273332D01*
X78013295Y-102273332D02*
X78156152Y-102273332D01*
X78156152Y-102273332D02*
X78251390Y-102311428D01*
X78251390Y-102311428D02*
X78299009Y-102349523D01*
X78299009Y-102349523D02*
X78346628Y-102425713D01*
X78346628Y-102425713D02*
X78346628Y-102730475D01*
X77918057Y-101968571D02*
X77870438Y-101930475D01*
X77870438Y-101930475D02*
X77822819Y-101854285D01*
X77822819Y-101854285D02*
X77822819Y-101663809D01*
X77822819Y-101663809D02*
X77870438Y-101587618D01*
X77870438Y-101587618D02*
X77918057Y-101549523D01*
X77918057Y-101549523D02*
X78013295Y-101511428D01*
X78013295Y-101511428D02*
X78108533Y-101511428D01*
X78108533Y-101511428D02*
X78251390Y-101549523D01*
X78251390Y-101549523D02*
X78822819Y-102006666D01*
X78822819Y-102006666D02*
X78822819Y-101511428D01*
X78314819Y-94907332D02*
X77838628Y-95173999D01*
X78314819Y-95364475D02*
X77314819Y-95364475D01*
X77314819Y-95364475D02*
X77314819Y-95059713D01*
X77314819Y-95059713D02*
X77362438Y-94983523D01*
X77362438Y-94983523D02*
X77410057Y-94945428D01*
X77410057Y-94945428D02*
X77505295Y-94907332D01*
X77505295Y-94907332D02*
X77648152Y-94907332D01*
X77648152Y-94907332D02*
X77743390Y-94945428D01*
X77743390Y-94945428D02*
X77791009Y-94983523D01*
X77791009Y-94983523D02*
X77838628Y-95059713D01*
X77838628Y-95059713D02*
X77838628Y-95364475D01*
X77648152Y-94221618D02*
X78314819Y-94221618D01*
X77267200Y-94412094D02*
X77981485Y-94602571D01*
X77981485Y-94602571D02*
X77981485Y-94107332D01*
D11*
%TO.C,J1*%
X79349999Y-106730000D02*
X79350000Y-108000000D01*
X78079999Y-106729999D02*
X79349999Y-106730000D01*
X75969999Y-109077358D02*
X75969999Y-109390000D01*
X75109999Y-109077358D02*
X75109998Y-109390000D01*
X73429999Y-109077358D02*
X73429999Y-109390000D01*
X72569999Y-109077358D02*
X72569999Y-109390000D01*
X70889999Y-109077358D02*
X70889999Y-109390000D01*
X70029999Y-109077358D02*
X70029999Y-109390000D01*
X68349999Y-109077358D02*
X68349999Y-109389999D01*
X67489999Y-109077358D02*
X67489999Y-109390000D01*
X78509999Y-109160000D02*
X78509998Y-109390000D01*
X77649999Y-109160000D02*
X77650000Y-109390000D01*
X79459999Y-109390000D02*
X66539999Y-109390000D01*
X76809999Y-109390000D02*
X76809999Y-112150001D01*
X74269999Y-109390000D02*
X74269999Y-112150000D01*
X71729999Y-109389999D02*
X71729999Y-112150000D01*
X69189999Y-109390000D02*
X69189999Y-112150000D01*
X66539999Y-109390000D02*
X66539999Y-112150000D01*
X79459998Y-112150000D02*
X79459999Y-109390000D01*
X75969999Y-112150000D02*
X75969999Y-118150000D01*
X73429999Y-112150001D02*
X73429999Y-118150000D01*
X70889999Y-112150000D02*
X70889999Y-118150000D01*
X68349999Y-112150000D02*
X68349999Y-118150000D01*
X66539999Y-112150000D02*
X79459998Y-112150000D01*
X75969999Y-118150000D02*
X75109999Y-118150000D01*
X75109999Y-118150000D02*
X75109999Y-112150000D01*
X73429999Y-118150000D02*
X72569999Y-118150000D01*
X72569999Y-118150000D02*
X72569999Y-112150001D01*
X70889999Y-118150000D02*
X70029999Y-118150000D01*
X70029999Y-118150000D02*
X70029999Y-112150001D01*
X68349999Y-118150000D02*
X67489999Y-118150000D01*
X67489999Y-118150000D02*
X67489999Y-112150000D01*
X78509999Y-118150000D02*
X77649999Y-118150000D01*
X77649999Y-112150000D01*
X78509999Y-112150000D01*
X78509999Y-118150000D01*
G36*
X78509999Y-118150000D02*
G01*
X77649999Y-118150000D01*
X77649999Y-112150000D01*
X78509999Y-112150000D01*
X78509999Y-118150000D01*
G37*
%TO.C,D1*%
X76500000Y-97270000D02*
X76500000Y-91770000D01*
X76500000Y-97270000D02*
X69500000Y-97270000D01*
X76500000Y-91770000D02*
X69950000Y-91770000D01*
X75700000Y-93620000D02*
X75700000Y-95420000D01*
X70300000Y-93620000D02*
X70300000Y-95420000D01*
X69950000Y-91770000D02*
X69500000Y-92220000D01*
X69500000Y-92220000D02*
X69500000Y-97270000D01*
%TO.C,R1*%
X75216000Y-85849999D02*
X78266000Y-85850000D01*
X75216000Y-90150001D02*
X78266000Y-90150000D01*
X75216000Y-90150001D02*
G75*
G02*
X75237765Y-85834474I1550001J2150001D01*
G01*
X78266000Y-85850000D02*
G75*
G02*
X78310513Y-90118249I-1499999J-2150000D01*
G01*
%TO.C,C1*%
X67424999Y-102889752D02*
X67424999Y-101467248D01*
X69244999Y-102889752D02*
X69244999Y-101467248D01*
%TO.C,U1*%
X69712001Y-104200000D02*
X69712001Y-100080000D01*
X69807000Y-104200000D02*
X69712001Y-104200000D01*
X74831999Y-104200000D02*
X74737000Y-104200000D01*
X69712001Y-100080000D02*
X69807000Y-100080000D01*
X74737000Y-100080000D02*
X74831999Y-100080000D01*
X74831999Y-100080000D02*
X74831999Y-104200000D01*
X69802000Y-104740000D02*
X69472000Y-104980000D01*
X69472000Y-104500000D01*
X69802000Y-104740000D01*
G36*
X69802000Y-104740000D02*
G01*
X69472000Y-104980000D01*
X69472000Y-104500000D01*
X69802000Y-104740000D01*
G37*
%TO.C,R3*%
X67298000Y-95501064D02*
X67298000Y-94046936D01*
X69118000Y-95501064D02*
X69118000Y-94046936D01*
%TO.C,R2*%
X79278000Y-101412936D02*
X79278000Y-102867064D01*
X77458000Y-101412936D02*
X77458000Y-102867064D01*
%TO.C,R4*%
X76950000Y-95501064D02*
X76950000Y-94046936D01*
X78770000Y-95501064D02*
X78770000Y-94046936D01*
%TO.C,JP2*%
X77590000Y-100740000D02*
X77590000Y-103540000D01*
X75590000Y-100740000D02*
X77590000Y-100740000D01*
X77590000Y-103540000D02*
X75590000Y-103540000D01*
X75590000Y-103540000D02*
X75590000Y-100740000D01*
%TD*%
M02*
