%TF.GenerationSoftware,KiCad,Pcbnew,9.0.4*%
%TF.CreationDate,2026-01-01T23:11:03+01:00*%
%TF.ProjectId,color-sensor-2026,636f6c6f-722d-4736-956e-736f722d3230,rev?*%
%TF.SameCoordinates,Original*%
%TF.FileFunction,Copper,L2,Bot*%
%TF.FilePolarity,Positive*%
%FSLAX46Y46*%
G04 Gerber Fmt 4.6, Leading zero omitted, Abs format (unit mm)*
G04 Created by KiCad (PCBNEW 9.0.4) date 2026-01-01 23:11:03*
%MOMM*%
%LPD*%
G01*
G04 APERTURE LIST*
%TA.AperFunction,ComponentPad*%
%ADD10C,0.800000*%
%TD*%
%TA.AperFunction,ComponentPad*%
%ADD11C,6.400000*%
%TD*%
%TA.AperFunction,ComponentPad*%
%ADD12R,1.700000X1.700000*%
%TD*%
%TA.AperFunction,ComponentPad*%
%ADD13C,1.700000*%
%TD*%
%TA.AperFunction,ComponentPad*%
%ADD14C,1.500000*%
%TD*%
%TA.AperFunction,ViaPad*%
%ADD15C,0.600000*%
%TD*%
%TA.AperFunction,Conductor*%
%ADD16C,0.600000*%
%TD*%
G04 APERTURE END LIST*
D10*
%TO.P,H1,1,1*%
%TO.N,GND*%
X67600000Y-88000000D03*
X68302944Y-86302944D03*
X68302944Y-89697056D03*
X70000000Y-85600000D03*
D11*
X70000000Y-88000000D03*
D10*
X70000000Y-90400000D03*
X71697056Y-86302944D03*
X71697056Y-89697056D03*
X72400000Y-88000000D03*
%TD*%
D12*
%TO.P,J1,1,Pin_1*%
%TO.N,/UPDI*%
X78079999Y-108000000D03*
D13*
%TO.P,J1,2,Pin_2*%
%TO.N,/RX*%
X75539999Y-108000000D03*
%TO.P,J1,3,Pin_3*%
%TO.N,/TX{slash}DAC*%
X73000000Y-108000000D03*
%TO.P,J1,4,Pin_4*%
%TO.N,+3.3V*%
X70459999Y-108000000D03*
%TO.P,J1,5,Pin_5*%
%TO.N,GND*%
X67919999Y-108000000D03*
%TD*%
D14*
%TO.P,R1,1*%
%TO.N,+3.3V*%
X75066000Y-88000000D03*
%TO.P,R1,2*%
%TO.N,Net-(U1-PA1)*%
X78466000Y-88000000D03*
%TD*%
D15*
%TO.N,GND*%
X71374000Y-94183200D03*
X72237600Y-92862400D03*
X69189600Y-99060000D03*
X67157600Y-99212400D03*
X70358000Y-101549200D03*
X77606000Y-98838000D03*
X77606000Y-97822000D03*
X75574000Y-98838000D03*
X76590000Y-98838000D03*
X76590000Y-97822000D03*
X75574000Y-97822000D03*
%TO.N,Net-(U1-PA1)*%
X74939000Y-104680000D03*
%TD*%
D16*
%TO.N,+3.3V*%
X73152000Y-105307999D02*
X73152000Y-95199200D01*
X70459999Y-108000000D02*
X73152000Y-105307999D01*
X73152000Y-95199200D02*
X75066000Y-93285200D01*
X75066000Y-93285200D02*
X75066000Y-88000000D01*
%TO.N,Net-(U1-PA1)*%
X78466000Y-91374000D02*
X78466000Y-88000000D01*
X74177000Y-95663000D02*
X78466000Y-91374000D01*
X74939000Y-104680000D02*
X74304000Y-104680000D01*
X74177000Y-104553000D02*
X74177000Y-95663000D01*
X74304000Y-104680000D02*
X74177000Y-104553000D01*
%TD*%
%TA.AperFunction,Conductor*%
%TO.N,GND*%
G36*
X69035269Y-108761717D02*
G01*
X69035269Y-108761716D01*
X69074621Y-108707555D01*
X69079231Y-108698507D01*
X69127204Y-108647709D01*
X69195024Y-108630912D01*
X69261160Y-108653447D01*
X69300203Y-108698504D01*
X69304948Y-108707817D01*
X69429889Y-108879786D01*
X69580212Y-109030109D01*
X69752178Y-109155048D01*
X69752180Y-109155049D01*
X69752183Y-109155051D01*
X69941587Y-109251557D01*
X70143756Y-109317246D01*
X70353712Y-109350500D01*
X70353713Y-109350500D01*
X70566285Y-109350500D01*
X70566286Y-109350500D01*
X70776242Y-109317246D01*
X70978411Y-109251557D01*
X71167815Y-109155051D01*
X71254137Y-109092335D01*
X71339785Y-109030109D01*
X71339787Y-109030106D01*
X71339791Y-109030104D01*
X71490103Y-108879792D01*
X71490105Y-108879788D01*
X71490108Y-108879786D01*
X71615047Y-108707821D01*
X71615183Y-108707555D01*
X71619512Y-108699056D01*
X71667483Y-108648260D01*
X71735303Y-108631462D01*
X71801439Y-108653996D01*
X71840483Y-108699052D01*
X71844949Y-108707817D01*
X71969890Y-108879786D01*
X72120213Y-109030109D01*
X72292179Y-109155048D01*
X72292181Y-109155049D01*
X72292184Y-109155051D01*
X72481588Y-109251557D01*
X72683757Y-109317246D01*
X72893713Y-109350500D01*
X72893714Y-109350500D01*
X73106286Y-109350500D01*
X73106287Y-109350500D01*
X73316243Y-109317246D01*
X73518412Y-109251557D01*
X73707816Y-109155051D01*
X73794138Y-109092335D01*
X73879786Y-109030109D01*
X73879788Y-109030106D01*
X73879792Y-109030104D01*
X74030104Y-108879792D01*
X74030106Y-108879788D01*
X74030109Y-108879786D01*
X74155048Y-108707820D01*
X74155050Y-108707817D01*
X74155051Y-108707816D01*
X74159512Y-108699058D01*
X74207483Y-108648262D01*
X74275303Y-108631464D01*
X74341440Y-108653998D01*
X74380483Y-108699054D01*
X74384948Y-108707817D01*
X74509889Y-108879786D01*
X74660212Y-109030109D01*
X74832178Y-109155048D01*
X74832180Y-109155049D01*
X74832183Y-109155051D01*
X75021587Y-109251557D01*
X75223756Y-109317246D01*
X75433712Y-109350500D01*
X75433713Y-109350500D01*
X75646285Y-109350500D01*
X75646286Y-109350500D01*
X75856242Y-109317246D01*
X76058411Y-109251557D01*
X76247815Y-109155051D01*
X76419791Y-109030104D01*
X76533328Y-108916566D01*
X76594647Y-108883084D01*
X76664339Y-108888068D01*
X76720273Y-108929939D01*
X76737188Y-108960917D01*
X76786201Y-109092328D01*
X76786205Y-109092335D01*
X76872451Y-109207544D01*
X76872454Y-109207547D01*
X76987663Y-109293793D01*
X76987670Y-109293797D01*
X77122516Y-109344091D01*
X77122515Y-109344091D01*
X77129443Y-109344835D01*
X77182126Y-109350500D01*
X78977871Y-109350499D01*
X79037482Y-109344091D01*
X79172330Y-109293796D01*
X79287545Y-109207546D01*
X79287547Y-109207542D01*
X79287819Y-109207272D01*
X79288160Y-109207085D01*
X79294644Y-109202232D01*
X79295341Y-109203164D01*
X79349142Y-109173787D01*
X79418834Y-109178771D01*
X79474767Y-109220643D01*
X79499184Y-109286107D01*
X79499500Y-109294953D01*
X79499500Y-111875000D01*
X79479815Y-111942039D01*
X79427011Y-111987794D01*
X79375500Y-111999000D01*
X66624500Y-111999000D01*
X66557461Y-111979315D01*
X66511706Y-111926511D01*
X66500500Y-111875000D01*
X66500500Y-108704203D01*
X66520185Y-108637164D01*
X66572989Y-108591409D01*
X66642147Y-108581465D01*
X66705703Y-108610490D01*
X66734985Y-108647908D01*
X66765374Y-108707550D01*
X66804727Y-108761716D01*
X67437036Y-108129408D01*
X67454074Y-108192993D01*
X67519900Y-108307007D01*
X67612992Y-108400099D01*
X67727006Y-108465925D01*
X67790589Y-108482962D01*
X67158281Y-109115269D01*
X67158281Y-109115270D01*
X67212448Y-109154624D01*
X67401781Y-109251095D01*
X67603869Y-109316757D01*
X67813753Y-109350000D01*
X68026245Y-109350000D01*
X68236126Y-109316757D01*
X68236129Y-109316757D01*
X68438216Y-109251095D01*
X68627553Y-109154622D01*
X68681715Y-109115270D01*
X68681716Y-109115270D01*
X68049407Y-108482962D01*
X68112992Y-108465925D01*
X68227006Y-108400099D01*
X68320098Y-108307007D01*
X68385924Y-108192993D01*
X68402961Y-108129408D01*
X69035269Y-108761717D01*
G37*
%TD.AperFunction*%
%TA.AperFunction,Conductor*%
G36*
X78004418Y-84500816D02*
G01*
X78204561Y-84515130D01*
X78222063Y-84517647D01*
X78413797Y-84559355D01*
X78430755Y-84564334D01*
X78614609Y-84632909D01*
X78630701Y-84640259D01*
X78802904Y-84734288D01*
X78817784Y-84743849D01*
X78974867Y-84861441D01*
X78988237Y-84873027D01*
X79126972Y-85011762D01*
X79138558Y-85025132D01*
X79256146Y-85182210D01*
X79265711Y-85197095D01*
X79359740Y-85369298D01*
X79367090Y-85385390D01*
X79435662Y-85569236D01*
X79440646Y-85586212D01*
X79482351Y-85777931D01*
X79484869Y-85795442D01*
X79499184Y-85995580D01*
X79499500Y-86004427D01*
X79499500Y-86965664D01*
X79479815Y-87032703D01*
X79427011Y-87078458D01*
X79357853Y-87088402D01*
X79294297Y-87059377D01*
X79287819Y-87053345D01*
X79280648Y-87046174D01*
X79280646Y-87046172D01*
X79121405Y-86930476D01*
X78946029Y-86841117D01*
X78758826Y-86780290D01*
X78564422Y-86749500D01*
X78564417Y-86749500D01*
X78367583Y-86749500D01*
X78367578Y-86749500D01*
X78173173Y-86780290D01*
X77985970Y-86841117D01*
X77810594Y-86930476D01*
X77762163Y-86965664D01*
X77651354Y-87046172D01*
X77651352Y-87046174D01*
X77651351Y-87046174D01*
X77512174Y-87185351D01*
X77512174Y-87185352D01*
X77512172Y-87185354D01*
X77462485Y-87253741D01*
X77396476Y-87344594D01*
X77307117Y-87519970D01*
X77246290Y-87707173D01*
X77215500Y-87901577D01*
X77215500Y-88098422D01*
X77246290Y-88292826D01*
X77307117Y-88480029D01*
X77396476Y-88655405D01*
X77512172Y-88814646D01*
X77512174Y-88814648D01*
X77629181Y-88931655D01*
X77662666Y-88992978D01*
X77665500Y-89019336D01*
X77665500Y-90991060D01*
X77645815Y-91058099D01*
X77629181Y-91078741D01*
X76078181Y-92629741D01*
X76016858Y-92663226D01*
X75947166Y-92658242D01*
X75891233Y-92616370D01*
X75866816Y-92550906D01*
X75866500Y-92542060D01*
X75866500Y-89019336D01*
X75886185Y-88952297D01*
X75902819Y-88931655D01*
X76019828Y-88814646D01*
X76135524Y-88655405D01*
X76224884Y-88480025D01*
X76285709Y-88292826D01*
X76316500Y-88098422D01*
X76316500Y-87901577D01*
X76285709Y-87707173D01*
X76224882Y-87519970D01*
X76135523Y-87344594D01*
X76019828Y-87185354D01*
X75880646Y-87046172D01*
X75721405Y-86930476D01*
X75546029Y-86841117D01*
X75358826Y-86780290D01*
X75164422Y-86749500D01*
X75164417Y-86749500D01*
X74967583Y-86749500D01*
X74967578Y-86749500D01*
X74773173Y-86780290D01*
X74585970Y-86841117D01*
X74410594Y-86930476D01*
X74362163Y-86965664D01*
X74251354Y-87046172D01*
X74251352Y-87046174D01*
X74251351Y-87046174D01*
X74112174Y-87185351D01*
X74112174Y-87185352D01*
X74112172Y-87185354D01*
X74062485Y-87253741D01*
X73996476Y-87344594D01*
X73907117Y-87519970D01*
X73846290Y-87707173D01*
X73815500Y-87901577D01*
X73815500Y-88098422D01*
X73846290Y-88292826D01*
X73907117Y-88480029D01*
X73996476Y-88655405D01*
X74112172Y-88814646D01*
X74112174Y-88814648D01*
X74229181Y-88931655D01*
X74262666Y-88992978D01*
X74265500Y-89019336D01*
X74265500Y-92902260D01*
X74245815Y-92969299D01*
X74229181Y-92989941D01*
X72641711Y-94577411D01*
X72585960Y-94633162D01*
X72530209Y-94688912D01*
X72442609Y-94820014D01*
X72442602Y-94820027D01*
X72382264Y-94965698D01*
X72382261Y-94965710D01*
X72351500Y-95120353D01*
X72351500Y-104925059D01*
X72331815Y-104992098D01*
X72315181Y-105012740D01*
X70707765Y-106620155D01*
X70646442Y-106653640D01*
X70600688Y-106654948D01*
X70566288Y-106649500D01*
X70566286Y-106649500D01*
X70353712Y-106649500D01*
X70305041Y-106657208D01*
X70143759Y-106682753D01*
X69941584Y-106748444D01*
X69752178Y-106844951D01*
X69580212Y-106969890D01*
X69429889Y-107120213D01*
X69304948Y-107292182D01*
X69300201Y-107301499D01*
X69252226Y-107352293D01*
X69184404Y-107369087D01*
X69118270Y-107346548D01*
X69079233Y-107301495D01*
X69074625Y-107292452D01*
X69035269Y-107238282D01*
X69035268Y-107238282D01*
X68402961Y-107870590D01*
X68385924Y-107807007D01*
X68320098Y-107692993D01*
X68227006Y-107599901D01*
X68112992Y-107534075D01*
X68049408Y-107517037D01*
X68681715Y-106884728D01*
X68627549Y-106845375D01*
X68438216Y-106748904D01*
X68236128Y-106683242D01*
X68026245Y-106650000D01*
X67813753Y-106650000D01*
X67603871Y-106683242D01*
X67603868Y-106683242D01*
X67401781Y-106748904D01*
X67212438Y-106845380D01*
X67158281Y-106884727D01*
X67158281Y-106884728D01*
X67790590Y-107517037D01*
X67727006Y-107534075D01*
X67612992Y-107599901D01*
X67519900Y-107692993D01*
X67454074Y-107807007D01*
X67437036Y-107870591D01*
X66804727Y-107238282D01*
X66804726Y-107238282D01*
X66765379Y-107292440D01*
X66765377Y-107292443D01*
X66734984Y-107352093D01*
X66687010Y-107402888D01*
X66619189Y-107419683D01*
X66553054Y-107397145D01*
X66509603Y-107342430D01*
X66500500Y-107295797D01*
X66500500Y-86004427D01*
X66500816Y-85995581D01*
X66515130Y-85795443D01*
X66515131Y-85795434D01*
X66517646Y-85777938D01*
X66559356Y-85586199D01*
X66564333Y-85569248D01*
X66632911Y-85385385D01*
X66640259Y-85369298D01*
X66702815Y-85254734D01*
X66734291Y-85197089D01*
X66743845Y-85182221D01*
X66861448Y-85025123D01*
X66873020Y-85011769D01*
X67011769Y-84873020D01*
X67025123Y-84861448D01*
X67182221Y-84743845D01*
X67197089Y-84734291D01*
X67369298Y-84640258D01*
X67385385Y-84632911D01*
X67569248Y-84564333D01*
X67586199Y-84559356D01*
X67777938Y-84517646D01*
X67795436Y-84515130D01*
X67995582Y-84500816D01*
X68004428Y-84500500D01*
X68065892Y-84500500D01*
X77934108Y-84500500D01*
X77995572Y-84500500D01*
X78004418Y-84500816D01*
G37*
%TD.AperFunction*%
%TA.AperFunction,Conductor*%
G36*
X79416753Y-91423528D02*
G01*
X79473425Y-91464395D01*
X79499006Y-91529413D01*
X79499500Y-91540465D01*
X79499500Y-106705047D01*
X79479815Y-106772086D01*
X79427011Y-106817841D01*
X79357853Y-106827785D01*
X79294297Y-106798760D01*
X79287819Y-106792728D01*
X79287543Y-106792452D01*
X79172334Y-106706206D01*
X79172327Y-106706202D01*
X79037481Y-106655908D01*
X79037482Y-106655908D01*
X78977882Y-106649501D01*
X78977880Y-106649500D01*
X78977872Y-106649500D01*
X78977863Y-106649500D01*
X77182128Y-106649500D01*
X77182122Y-106649501D01*
X77122515Y-106655908D01*
X76987670Y-106706202D01*
X76987663Y-106706206D01*
X76872454Y-106792452D01*
X76872451Y-106792455D01*
X76786205Y-106907664D01*
X76786202Y-106907669D01*
X76737188Y-107039083D01*
X76695316Y-107095016D01*
X76629852Y-107119433D01*
X76561579Y-107104581D01*
X76533325Y-107083430D01*
X76419785Y-106969890D01*
X76247819Y-106844951D01*
X76058413Y-106748444D01*
X76058412Y-106748443D01*
X76058411Y-106748443D01*
X75856242Y-106682754D01*
X75856240Y-106682753D01*
X75856239Y-106682753D01*
X75694956Y-106657208D01*
X75646286Y-106649500D01*
X75433712Y-106649500D01*
X75385041Y-106657208D01*
X75223759Y-106682753D01*
X75021584Y-106748444D01*
X74832178Y-106844951D01*
X74660212Y-106969890D01*
X74509889Y-107120213D01*
X74384947Y-107292183D01*
X74380481Y-107300949D01*
X74332505Y-107351742D01*
X74264683Y-107368535D01*
X74198549Y-107345995D01*
X74159513Y-107300942D01*
X74155051Y-107292184D01*
X74155049Y-107292181D01*
X74155048Y-107292179D01*
X74030109Y-107120213D01*
X73879786Y-106969890D01*
X73707820Y-106844951D01*
X73518414Y-106748444D01*
X73518413Y-106748443D01*
X73518412Y-106748443D01*
X73316243Y-106682754D01*
X73316241Y-106682753D01*
X73316239Y-106682753D01*
X73205326Y-106665186D01*
X73142191Y-106635257D01*
X73105260Y-106575945D01*
X73106258Y-106506082D01*
X73137041Y-106455033D01*
X73662286Y-105929789D01*
X73662289Y-105929788D01*
X73773789Y-105818288D01*
X73861394Y-105687178D01*
X73921737Y-105541496D01*
X73921739Y-105541485D01*
X73923506Y-105535663D01*
X73925990Y-105536416D01*
X73953103Y-105484518D01*
X74013800Y-105449911D01*
X74066574Y-105448955D01*
X74070500Y-105449736D01*
X74070503Y-105449737D01*
X74136279Y-105462820D01*
X74225155Y-105480500D01*
X74225158Y-105480500D01*
X75017844Y-105480500D01*
X75017845Y-105480499D01*
X75172497Y-105449737D01*
X75318179Y-105389394D01*
X75449289Y-105301789D01*
X75560789Y-105190289D01*
X75648394Y-105059179D01*
X75708737Y-104913497D01*
X75739500Y-104758842D01*
X75739500Y-104601158D01*
X75739500Y-104601155D01*
X75739499Y-104601153D01*
X75708738Y-104446510D01*
X75708737Y-104446503D01*
X75708735Y-104446498D01*
X75648397Y-104300827D01*
X75648390Y-104300814D01*
X75560789Y-104169711D01*
X75560786Y-104169707D01*
X75449292Y-104058213D01*
X75449288Y-104058210D01*
X75318185Y-103970609D01*
X75318172Y-103970602D01*
X75172501Y-103910264D01*
X75172491Y-103910261D01*
X75077308Y-103891328D01*
X75015397Y-103858943D01*
X74980823Y-103798227D01*
X74977500Y-103769711D01*
X74977500Y-96045940D01*
X74997185Y-95978901D01*
X75013819Y-95958259D01*
X79087786Y-91884292D01*
X79087789Y-91884289D01*
X79175394Y-91753179D01*
X79235737Y-91607497D01*
X79253883Y-91516274D01*
X79286268Y-91454363D01*
X79346984Y-91419789D01*
X79416753Y-91423528D01*
G37*
%TD.AperFunction*%
%TD*%
M02*
