M48
; DRILL file {KiCad 9.0.4} date 2026-01-01T23:10:59+0100
; FORMAT={-:-/ absolute / inch / decimal}
; #@! TF.CreationDate,2026-01-01T23:10:59+01:00
; #@! TF.GenerationSoftware,Kicad,Pcbnew,9.0.4
; #@! TF.FileFunction,Plated,1,2,PTH
FMAT,2
INCH
; #@! TA.AperFunction,Plated,PTH,ViaDrill
T1C0.0118
; #@! TA.AperFunction,Plated,PTH,ComponentDrill
T2C0.0197
; #@! TA.AperFunction,Plated,PTH,ComponentDrill
T3C0.0315
; #@! TA.AperFunction,Plated,PTH,ComponentDrill
T4C0.0394
; #@! TA.AperFunction,Plated,PTH,ComponentDrill
T5C0.1260
%
G90
G05
T1
X2.644Y-3.906
X2.724Y-3.9
X2.77Y-3.998
X2.81Y-3.708
X2.844Y-3.656
X2.9504Y-4.1213
X2.9754Y-3.8513
X2.9754Y-3.8913
X3.0154Y-3.8513
X3.0154Y-3.8913
X3.0554Y-3.8513
X3.0554Y-3.8913
T2
X2.6614Y-3.4646
X2.6891Y-3.3978
X2.6891Y-3.5314
X2.7559Y-3.3701
X2.7559Y-3.5591
X2.8227Y-3.3978
X2.8227Y-3.5314
X2.8504Y-3.4646
T3
X2.9554Y-3.4646
X3.0892Y-3.4646
T4
X2.674Y-4.252
X2.774Y-4.252
X2.874Y-4.252
X2.974Y-4.252
X3.074Y-4.252
T5
X2.7559Y-3.4646
M30
